PathFileType	4	(X/Y/Z)	 control3min.trc
DataRate	CameraRate	NumFrames	NumMarkers	Units	OrigDataRate	OrigDataStartFrame	OrigNumFrames
200	200	11	35	m	200	376	1000
Frame#	Time	C7			LSH			RSH			MAN			RASI			LASI			HIPR			HIPL			RPSI			LPSI			COX			RTHI1			RTHI2			RTHI3			RTHI4			RSHA1			RSHA2			RSHA3			RSHA4			RHEEL			RMET5			RMET1			RTOE			LTHI1			LTHI2			LTHI3			LTHI4			LSHA1			LSHA2			LSHA3			LSHA4			LHEEL			LMET5			LMET1			LTOE			
		X1	Y1	Z1	X2	Y2	Z2	X3	Y3	Z3	X4	Y4	Z4	X5	Y5	Z5	X6	Y6	Z6	X7	Y7	Z7	X8	Y8	Z8	X9	Y9	Z9	X10	Y10	Z10	X11	Y11	Z11	X12	Y12	Z12	X13	Y13	Z13	X14	Y14	Z14	X15	Y15	Z15	X16	Y16	Z16	X17	Y17	Z17	X18	Y18	Z18	X19	Y19	Z19	X20	Y20	Z20	X21	Y21	Z21	X22	Y22	Z22	X23	Y23	Z23	X24	Y24	Z24	X25	Y25	Z25	X26	Y26	Z26	X27	Y27	Z27	X28	Y28	Z28	X29	Y29	Z29	X30	Y30	Z30	X31	Y31	Z31	X32	Y32	Z32	X33	Y33	Z33	X34	Y34	Z34	X35	Y35	Z35	
376	1.8800	-0.311098	1.424881	-0.515894	-0.258883	1.401233	-0.677574	-0.246156	1.395770	-0.347533	-0.196573	1.380518	-0.518634	-0.168881	0.992200	-0.427975	-0.163747	1.004987	-0.620765	-0.213856	1.036810	-0.383031	-0.214946	1.048355	-0.644874	-0.310805	1.029702	-0.452859	-0.304437	1.038204	-0.564658	-0.315234	1.034945	-0.512437	-0.250374	0.780582	-0.342880	-0.234681	0.722964	-0.341658	-0.171904	0.738230	-0.350714	-0.181090	0.798831	-0.353497	-0.298198	0.360221	-0.320134	-0.312184	0.319433	-0.322542	-0.253226	0.306462	-0.330145	-0.244062	0.345996	-0.332077	-0.385653	0.150081	-0.373654	-0.252410	0.068562	-0.313015	-0.223637	0.058270	-0.381569	-0.202838	0.045481	-0.368544	-0.243769	0.805910	-0.694522	-0.228956	0.745936	-0.699379	-0.166309	0.754683	-0.686344	-0.172329	0.814327	-0.679849	-0.313467	0.331830	-0.713026	-0.326765	0.293784	-0.708712	-0.265343	0.279523	-0.707020	-0.260124	0.323231	-0.712505	-0.381425	0.156334	-0.664151	-0.266887	0.042353	-0.711232	-0.235642	0.047739	-0.646631	-0.216055	0.037880	-0.656593	
377	1.8850	-0.310868	1.424435	-0.515978	-0.258448	1.400581	-0.677667	-0.246329	1.394974	-0.347429	-0.196547	1.379977	-0.518554	-0.169090	0.991765	-0.427878	-0.163732	1.004562	-0.620729	-0.214282	1.036202	-0.382942	-0.214992	1.047802	-0.644845	-0.311021	1.028993	-0.452954	-0.304535	1.037508	-0.564736	-0.315374	1.034222	-0.512519	-0.249442	0.780050	-0.342498	-0.233655	0.722425	-0.341648	-0.170992	0.737780	-0.351334	-0.180272	0.798375	-0.353969	-0.298278	0.359910	-0.320656	-0.312335	0.319139	-0.322996	-0.253400	0.306024	-0.330444	-0.244091	0.345557	-0.332321	-0.386238	0.149636	-0.374002	-0.252550	0.069122	-0.313162	-0.223693	0.058846	-0.381649	-0.202804	0.046361	-0.368525	-0.242767	0.805328	-0.694746	-0.227844	0.745337	-0.699252	-0.165403	0.754141	-0.685364	-0.171550	0.813803	-0.679051	-0.313403	0.331392	-0.712680	-0.326797	0.293374	-0.708400	-0.265409	0.279013	-0.706394	-0.260092	0.322720	-0.711926	-0.381891	0.155269	-0.664203	-0.265732	0.042753	-0.710295	-0.235087	0.048355	-0.645491	-0.215269	0.038762	-0.655260	
378	1.8900	-0.310593	1.423799	-0.516043	-0.258000	1.399675	-0.677769	-0.246502	1.393925	-0.347318	-0.196531	1.379189	-0.518468	-0.169312	0.991089	-0.427812	-0.163746	1.003923	-0.620729	-0.214699	1.035338	-0.382864	-0.215085	1.047015	-0.644836	-0.311245	1.027993	-0.453035	-0.304661	1.036543	-0.564803	-0.315532	1.033230	-0.512596	-0.248466	0.779296	-0.342137	-0.232607	0.721668	-0.341670	-0.170050	0.737119	-0.351965	-0.179405	0.797691	-0.354454	-0.298361	0.359395	-0.321148	-0.312509	0.318647	-0.323462	-0.253581	0.305381	-0.330720	-0.244138	0.344900	-0.332521	-0.386879	0.149085	-0.374234	-0.252777	0.069243	-0.313613	-0.223965	0.059127	-0.382114	-0.202971	0.046908	-0.368976	-0.241752	0.804496	-0.694906	-0.226707	0.744502	-0.699055	-0.164474	0.753395	-0.684364	-0.170762	0.813073	-0.678272	-0.313345	0.330743	-0.712299	-0.326864	0.292754	-0.708057	-0.265519	0.278276	-0.705657	-0.260079	0.321959	-0.711250	-0.382503	0.153877	-0.664230	-0.264468	0.043179	-0.709441	-0.234488	0.048885	-0.644388	-0.214405	0.039580	-0.653951	
379	1.8950	-0.310431	1.422607	-0.516049	-0.257551	1.398523	-0.677873	-0.246669	1.392628	-0.347203	-0.196523	1.378157	-0.518375	-0.169544	0.990171	-0.427778	-0.163782	1.003063	-0.620764	-0.215095	1.034232	-0.382804	-0.215217	1.045995	-0.644843	-0.311477	1.026713	-0.453119	-0.304809	1.035321	-0.564866	-0.315705	1.031976	-0.512670	-0.247478	0.778307	-0.341855	-0.231552	0.720670	-0.341730	-0.169101	0.736231	-0.352586	-0.178510	0.796768	-0.354942	-0.298416	0.358685	-0.321602	-0.312681	0.317963	-0.323927	-0.253757	0.304520	-0.330992	-0.244183	0.344038	-0.332704	-0.387544	0.148447	-0.374381	-0.253098	0.068885	-0.314356	-0.224447	0.059069	-0.382938	-0.203343	0.047068	-0.369861	-0.240743	0.803409	-0.694994	-0.225575	0.743439	-0.698797	-0.163543	0.752442	-0.683382	-0.169975	0.812125	-0.677538	-0.313278	0.329867	-0.711880	-0.326952	0.291923	-0.707686	-0.265662	0.277291	-0.704815	-0.260069	0.320947	-0.710478	-0.383235	0.152161	-0.664211	-0.263113	0.043621	-0.708710	-0.233841	0.049289	-0.643366	-0.213464	0.040301	-0.652715	
380	1.9000	-0.310235	1.421661	-0.516029	-0.257111	1.397127	-0.677977	-0.246828	1.391084	-0.347083	-0.196522	1.376873	-0.518277	-0.169782	0.989008	-0.427772	-0.163834	1.001978	-0.620833	-0.215464	1.032888	-0.382767	-0.215378	1.044739	-0.644862	-0.311713	1.025187	-0.453207	-0.304969	1.033845	-0.564925	-0.315881	1.030466	-0.512742	-0.246507	0.777072	-0.341657	-0.230514	0.719431	-0.341820	-0.168168	0.735104	-0.353173	-0.177622	0.795608	-0.355403	-0.298416	0.357782	-0.322015	-0.312821	0.317097	-0.324385	-0.253921	0.303443	-0.331281	-0.244181	0.342965	-0.332861	-0.388207	0.147732	-0.374470	-0.253531	0.068006	-0.315364	-0.225139	0.058616	-0.384086	-0.203936	0.046777	-0.371124	-0.239761	0.802086	-0.695035	-0.224479	0.742137	-0.698487	-0.162634	0.751267	-0.682439	-0.169200	0.810951	-0.676855	-0.313185	0.328761	-0.711428	-0.327040	0.290875	-0.707287	-0.265826	0.276058	-0.703885	-0.260048	0.319690	-0.709623	-0.384044	0.150150	-0.664115	-0.261713	0.044043	-0.708136	-0.233146	0.049519	-0.642475	-0.212462	0.040860	-0.651606	
381	1.9050	-0.310025	1.420222	-0.515973	-0.256685	1.395493	-0.678078	-0.246975	1.389293	-0.346960	-0.196528	1.375340	-0.518175	-0.170018	0.987597	-0.427797	-0.163898	1.000656	-0.620928	-0.215800	1.031310	-0.382756	-0.215557	1.043249	-0.644895	-0.311951	1.023409	-0.453295	-0.305135	1.032119	-0.564985	-0.316053	1.028702	-0.512818	-0.245571	0.775563	-0.341527	-0.229514	0.717947	-0.341922	-0.167268	0.733735	-0.353700	-0.176759	0.794197	-0.355821	-0.298333	0.356680	-0.322366	-0.312893	0.316031	-0.324834	-0.254029	0.302160	-0.331599	-0.244116	0.341678	-0.333024	-0.388843	0.146939	-0.374549	-0.254111	0.066593	-0.316598	-0.226047	0.057705	-0.385512	-0.204764	0.045990	-0.372709	-0.238834	0.800517	-0.695031	-0.223444	0.740585	-0.698137	-0.161765	0.749840	-0.681551	-0.168456	0.809533	-0.676241	-0.313057	0.327416	-0.710953	-0.327109	0.289592	-0.706864	-0.265983	0.274581	-0.702889	-0.259999	0.318167	-0.708674	-0.384887	0.147893	-0.663915	-0.260344	0.044368	-0.707737	-0.232420	0.049509	-0.641777	-0.211430	0.041173	-0.650698	
382	1.9100	-0.311218	1.419325	-0.517762	-0.256277	1.393625	-0.678172	-0.247109	1.387258	-0.346833	-0.196540	1.373561	-0.518070	-0.170245	0.985939	-0.427848	-0.163968	0.999091	-0.621044	-0.216104	1.029499	-0.382774	-0.215743	1.041525	-0.644943	-0.312187	1.021387	-0.453386	-0.305297	1.030151	-0.565050	-0.316216	1.026690	-0.512895	-0.244704	0.773817	-0.341474	-0.228576	0.716214	-0.342024	-0.166417	0.732127	-0.354162	-0.175967	0.792542	-0.356195	-0.298139	0.355370	-0.322685	-0.312863	0.314741	-0.325256	-0.254044	0.300648	-0.331968	-0.243968	0.340142	-0.333281	-0.389441	0.146063	-0.374671	-0.254857	0.064647	-0.318018	-0.227177	0.056299	-0.387172	-0.205838	0.044677	-0.374549	-0.237971	0.798699	-0.694999	-0.222494	0.738777	-0.697762	-0.160960	0.748149	-0.680730	-0.167750	0.807856	-0.675696	-0.312879	0.325810	-0.710456	-0.327126	0.288065	-0.706418	-0.266096	0.272846	-0.701837	-0.259905	0.316372	-0.707667	-0.385709	0.145454	-0.663597	-0.259107	0.044492	-0.707524	-0.231691	0.049175	-0.641315	-0.210422	0.041119	-0.650050	
383	1.9150	-0.311101	1.417457	-0.517748	-0.255896	1.391532	-0.678255	-0.247233	1.384985	-0.346702	-0.196549	1.371539	-0.517962	-0.170462	0.984036	-0.427919	-0.164039	0.997270	-0.621176	-0.216372	1.027465	-0.382819	-0.215926	1.039561	-0.645000	-0.312419	1.019152	-0.453483	-0.305449	1.027952	-0.565126	-0.316363	1.024442	-0.512980	-0.243926	0.771795	-0.341473	-0.227712	0.714229	-0.342126	-0.165630	0.730265	-0.354552	-0.175268	0.790646	-0.356511	-0.297825	0.353818	-0.322970	-0.312702	0.313212	-0.325646	-0.253947	0.298886	-0.332408	-0.243703	0.338349	-0.333668	-0.389999	0.145091	-0.374874	-0.255782	0.062178	-0.319566	-0.228522	0.054392	-0.389016	-0.207161	0.042846	-0.376577	-0.237188	0.796622	-0.694946	-0.221650	0.736704	-0.697374	-0.160238	0.746179	-0.679983	-0.167098	0.805891	-0.675223	-0.312626	0.323938	-0.709929	-0.327067	0.286273	-0.705946	-0.266139	0.270838	-0.700760	-0.259738	0.314310	-0.706608	-0.386463	0.142904	-0.663142	-0.258103	0.044296	-0.707475	-0.231006	0.048420	-0.641102	-0.209506	0.040570	-0.649693	
384	1.9200	-0.325129	1.417824	-0.533092	-0.255545	1.389217	-0.678323	-0.247348	1.382481	-0.346569	-0.196547	1.369270	-0.517852	-0.170662	0.981890	-0.428002	-0.164108	0.995185	-0.621313	-0.216605	1.025205	-0.382886	-0.216090	1.037348	-0.645063	-0.312637	1.016688	-0.453581	-0.305583	1.025521	-0.565211	-0.316491	1.021967	-0.513078	-0.243253	0.769505	-0.341499	-0.226937	0.712002	-0.342229	-0.164920	0.728137	-0.354862	-0.174679	0.788508	-0.356766	-0.297372	0.352005	-0.323213	-0.312394	0.311425	-0.326003	-0.253721	0.296870	-0.332927	-0.243305	0.336270	-0.334184	-0.390518	0.143985	-0.375172	-0.256872	0.059247	-0.321202	-0.230061	0.051995	-0.390999	-0.208709	0.040532	-0.378746	-0.236504	0.794281	-0.694878	-0.220924	0.734345	-0.696977	-0.159614	0.743910	-0.679307	-0.166513	0.803630	-0.674814	-0.312296	0.321786	-0.709385	-0.326913	0.284198	-0.705449	-0.266085	0.268556	-0.699684	-0.259483	0.311974	-0.705525	-0.387110	0.140303	-0.662552	-0.257424	0.043670	-0.707557	-0.230429	0.047164	-0.641135	-0.208764	0.039424	-0.649645	
385	1.9250	-0.325021	1.415225	-0.532944	-0.255220	1.386689	-0.678371	-0.247454	1.379755	-0.346440	-0.196532	1.366760	-0.517738	-0.170842	0.979502	-0.428093	-0.164171	0.992829	-0.621447	-0.216802	1.022719	-0.382968	-0.216226	1.034888	-0.645131	-0.312836	1.014008	-0.453686	-0.305698	1.022866	-0.565309	-0.316598	1.019271	-0.513192	-0.242695	0.766939	-0.341549	-0.226264	0.709523	-0.342335	-0.164300	0.725775	-0.355105	-0.174207	0.786125	-0.356967	-0.296788	0.349907	-0.323399	-0.311936	0.309356	-0.326321	-0.253360	0.294580	-0.333530	-0.242784	0.333903	-0.334846	-0.391000	0.142715	-0.375574	-0.258085	0.055932	-0.322891	-0.231760	0.049181	-0.393094	-0.210439	0.037883	-0.381064	-0.235914	0.791662	-0.694799	-0.220324	0.731709	-0.696589	-0.159096	0.741332	-0.678697	-0.166007	0.801067	-0.674462	-0.311884	0.319347	-0.708818	-0.326658	0.281825	-0.704924	-0.265918	0.266010	-0.698629	-0.259135	0.309362	-0.704436	-0.387643	0.137680	-0.661841	-0.257122	0.042543	-0.707729	-0.230004	0.045394	-0.641339	-0.208240	0.037663	-0.649858	
386	1.9300	-0.324459	1.412751	-0.532493	-0.254914	1.383948	-0.678395	-0.247547	1.376813	-0.346322	-0.196497	1.364007	-0.517618	-0.171003	0.976877	-0.428179	-0.164229	0.990195	-0.621571	-0.216968	1.020011	-0.383056	-0.216324	1.032175	-0.645200	-0.313017	1.011119	-0.453797	-0.305787	1.019998	-0.565424	-0.316684	1.016374	-0.513321	-0.242278	0.764139	-0.341624	-0.225702	0.706789	-0.342447	-0.163786	0.723174	-0.355283	-0.173856	0.783503	-0.357123	-0.296077	0.347503	-0.323544	-0.311338	0.307004	-0.326596	-0.252877	0.291998	-0.334217	-0.242149	0.331233	-0.335639	-0.391462	0.141225	-0.376061	-0.259371	0.052322	-0.324567	-0.233550	0.046102	-0.395322	-0.212215	0.035098	-0.383509	-0.235417	0.788763	-0.694714	-0.219847	0.728791	-0.696213	-0.158684	0.738455	-0.678147	-0.165580	0.798204	-0.674151	-0.311394	0.316620	-0.708231	-0.326313	0.279161	-0.704382	-0.265651	0.263189	-0.697606	-0.258702	0.306498	-0.703419	-0.388116	0.135021	-0.661037	-0.257173	0.040956	-0.707991	-0.229696	0.043249	-0.641578	-0.207854	0.035426	-0.650140	
